<?xml version="1.0" standalone="no"?>
<!DOCTYPE svg PUBLIC "-//W3C//DTD SVG 20010904//EN"
 "http://www.w3.org/TR/2001/REC-SVG-20010904/DTD/svg10.dtd">
<svg version="1.0" xmlns="http://www.w3.org/2000/svg"
 width="600.000000pt" height="600.000000pt" viewBox="0 0 600.000000 600.000000"
 preserveAspectRatio="xMidYMid meet">

<g transform="translate(0.000000,600.000000) scale(0.100000,-0.100000)"
fill="#000000" stroke="none">
<path d="M2740 5015 c-405 -82 -665 -485 -570 -883 50 -209 194 -391 382 -484
116 -57 174 -69 356 -75 l163 -5 -3 -518 c-3 -506 -4 -519 -24 -546 -55 -74
-135 -89 -314 -60 -98 17 -133 26 -315 80 -479 143 -948 -200 -948 -694 0
-280 161 -539 408 -656 131 -63 431 -143 675 -181 174 -27 533 -24 694 5 329
61 607 202 826 422 240 240 384 542 446 936 15 96 18 221 21 1019 3 614 1 940
-6 1002 -26 222 -143 411 -329 534 -85 56 -158 85 -260 105 -102 19 -1104 19
-1202 -1z m1195 -384 c88 -35 174 -125 203 -210 21 -63 22 -79 22 -525 l-1
-461 -22 30 c-153 208 -379 373 -602 441 -88 27 -99 27 -411 33 l-320 6 -76
38 c-114 56 -176 137 -199 260 -34 185 101 374 291 407 25 5 272 7 550 6 l505
-1 60 -24z m-360 -1397 c129 -90 238 -223 319 -389 96 -194 140 -370 152 -600
8 -141 -6 -208 -62 -315 -30 -58 -97 -130 -119 -130 -4 0 -19 -8 -33 -19 -81
-56 -226 -81 -338 -58 -139 30 -225 92 -317 229 -60 90 -77 128 -55 128 22 0
131 56 166 85 28 23 35 25 49 14 15 -13 15 -12 3 7 -12 19 -11 25 9 50 27 34
56 98 78 173 14 47 17 120 20 461 2 223 6 411 8 417 6 17 43 1 120 -53z
m-1271 -1069 c74 -22 129 -59 179 -117 49 -58 129 -184 172 -269 59 -116 173
-274 254 -351 l81 -78 -123 0 c-146 0 -261 12 -423 45 -145 29 -375 99 -424
127 -158 94 -222 288 -148 450 43 93 115 158 216 194 50 18 156 17 216 -1z"/>
</g>
</svg>
